<svg width="16" height="16" viewBox="0 0 16 16" fill="none" xmlns="http://www.w3.org/2000/svg">
<g clip-path="url(#clip0_358_146)">
<rect width="16" height="16" rx="4" fill="white"/>
<path d="M14.0361 -0.0328256L16.0329 1.96402C16.7511 2.68223 16.7511 3.84667 16.0329 4.56488L15.0345 5.5633L8.73236 11.8654C8.64614 11.9516 8.5292 12.0001 8.40726 12.0001H4.45977C4.20585 12.0001 4 11.7942 4 11.5403V7.59282C4 7.47088 4.04844 7.35394 4.13466 7.26772L10.4368 0.965599L11.4352 -0.0328261C12.1534 -0.751032 13.3179 -0.751031 14.0361 -0.0328256Z" fill="white"/>
<path d="M10.4368 0.965599L4.13466 7.26772C4.04844 7.35394 4 7.47088 4 7.59282V11.5403C4 11.7942 4.20585 12.0001 4.45977 12.0001H8.40726C8.5292 12.0001 8.64614 11.9516 8.73236 11.8654L15.0345 5.5633M10.4368 0.965599L11.4352 -0.0328261C12.1534 -0.751032 13.3179 -0.751031 14.0361 -0.0328256L16.0329 1.96402C16.7511 2.68223 16.7511 3.84667 16.0329 4.56488L15.0345 5.5633M10.4368 0.965599L15.0345 5.5633" stroke="#131316" stroke-width="1.33333"/>
</g>
<defs>
<clipPath id="clip0_358_146">
<rect width="16" height="16" fill="white"/>
</clipPath>
</defs>
</svg>
